<svg id="Capa_1" enable-background="new 0 0 495.14 495.14" height="512" viewBox="0 0 495.14 495.14" width="512" xmlns="http://www.w3.org/2000/svg"><g><g id="XMLID_32_"><g><circle cx="247.57" cy="247.57" fill="#fef0ae" r="247.57"/></g></g><path d="m148.37 247.57c0-110.884 72.914-204.738 173.399-236.259-23.421-7.347-48.353-11.311-74.199-11.311-136.73 0-247.57 110.84-247.57 247.57s110.84 247.57 247.57 247.57c25.846 0 50.785-3.966 74.207-11.314-100.485-31.52-173.407-125.372-173.407-236.256z" fill="#fee97d"/><g id="XMLID_222_"><g><path d="m495.09 251.71h.01c-.58 35.83-8.78 69.81-23.04 100.39l-.02-.01c-19.11-7.74-32.59-26.46-32.59-48.35 0-28.8 23.35-52.15 52.15-52.15 1.17 0 2.33.05 3.49.12z" fill="#fee97d"/><path d="m247.57 456.33c21.57 0 39.7 14.77 44.8 34.76-14.53 2.66-29.5 4.05-44.8 4.05s-30.27-1.39-44.8-4.05c5.1-19.99 23.23-34.76 44.8-34.76z" fill="#fedf30"/><g fill="#fee97d"><path d="m307.32 345.89c16.67 0 30.19 13.52 30.19 30.19 0 16.68-13.52 30.19-30.19 30.19-16.68 0-30.2-13.51-30.2-30.19 0-16.67 13.52-30.19 30.2-30.19z"/><circle cx="362.06" cy="296.73" r="21.35"/><circle cx="316.08" cy="182.46" r="57.45"/></g><circle cx="148.37" cy="296.27" fill="#fee45a" r="33.07"/><path d="m148.37 329.34c4.585 0 8.953-.935 12.923-2.623-6.789-20.134-11.059-41.427-12.435-63.505-.163-.002-.324-.012-.488-.012-18.27 0-33.07 14.81-33.07 33.07s14.8 33.07 33.07 33.07z" fill="#fedf30"/><path d="m86.99 191.57c11.15 0 20.19 9.04 20.19 20.18 0 11.15-9.04 20.19-20.19 20.19s-20.18-9.04-20.18-20.19c0-11.14 9.03-20.18 20.18-20.18z" fill="#fedf30"/><path d="m173.32 11.34c2.24 8.27 3.45 16.97 3.45 25.95 0 54.63-44.29 98.92-98.93 98.92-16.4 0-31.87-4-45.49-11.06h-.01c30.65-53.78 80.88-94.95 140.98-113.82z" fill="#fedf30"/></g></g></g></svg>